<svg width="537" height="466" viewBox="0 0 537 466" fill="none" xmlns="http://www.w3.org/2000/svg">
<rect opacity="0.4" x="74.5" y="5.5" width="383" height="389" stroke="#EE5514" stroke-width="11"/>
<circle cx="85" cy="30" r="5" fill="#EE5514" fill-opacity="0.1"/>
<circle cx="141" cy="30" r="5" fill="#EE5514" fill-opacity="0.1"/>
<circle cx="113" cy="30" r="5" fill="#EE5514" fill-opacity="0.1"/>
<circle cx="169" cy="30" r="5" fill="#EE5514" fill-opacity="0.1"/>
<circle cx="99" cy="30" r="5" fill="#EE5514" fill-opacity="0.1"/>
<circle cx="155" cy="30" r="5" fill="#EE5514" fill-opacity="0.1"/>
<circle cx="127" cy="30" r="5" fill="#EE5514" fill-opacity="0.1"/>
<circle cx="183" cy="30" r="5" fill="#EE5514" fill-opacity="0.1"/>
<circle cx="85" cy="58" r="5" fill="#EE5514" fill-opacity="0.1"/>
<circle cx="141" cy="58" r="5" fill="#EE5514" fill-opacity="0.1"/>
<circle cx="113" cy="58" r="5" fill="#EE5514" fill-opacity="0.1"/>
<circle cx="169" cy="58" r="5" fill="#EE5514" fill-opacity="0.1"/>
<circle cx="99" cy="58" r="5" fill="#EE5514" fill-opacity="0.1"/>
<circle cx="155" cy="58" r="5" fill="#EE5514" fill-opacity="0.1"/>
<circle cx="127" cy="58" r="5" fill="#EE5514" fill-opacity="0.1"/>
<circle cx="183" cy="58" r="5" fill="#EE5514" fill-opacity="0.1"/>
<circle cx="85" cy="86" r="5" fill="#EE5514" fill-opacity="0.1"/>
<circle cx="141" cy="86" r="5" fill="#EE5514" fill-opacity="0.1"/>
<circle cx="113" cy="86" r="5" fill="#EE5514" fill-opacity="0.1"/>
<circle cx="169" cy="86" r="5" fill="#EE5514" fill-opacity="0.1"/>
<circle cx="99" cy="86" r="5" fill="#EE5514" fill-opacity="0.1"/>
<circle cx="155" cy="86" r="5" fill="#EE5514" fill-opacity="0.1"/>
<circle cx="127" cy="86" r="5" fill="#EE5514" fill-opacity="0.1"/>
<circle cx="183" cy="86" r="5" fill="#EE5514" fill-opacity="0.1"/>
<circle cx="85" cy="114" r="5" fill="#EE5514" fill-opacity="0.1"/>
<circle cx="141" cy="114" r="5" fill="#EE5514" fill-opacity="0.1"/>
<circle cx="113" cy="114" r="5" fill="#EE5514" fill-opacity="0.1"/>
<circle cx="169" cy="114" r="5" fill="#EE5514" fill-opacity="0.1"/>
<circle cx="99" cy="114" r="5" fill="#EE5514" fill-opacity="0.1"/>
<circle cx="155" cy="114" r="5" fill="#EE5514" fill-opacity="0.1"/>
<circle cx="127" cy="114" r="5" fill="#EE5514" fill-opacity="0.1"/>
<circle cx="183" cy="114" r="5" fill="#EE5514" fill-opacity="0.1"/>
<circle cx="85" cy="16" r="5" fill="#EE5514" fill-opacity="0.1"/>
<circle cx="141" cy="16" r="5" fill="#EE5514" fill-opacity="0.1"/>
<circle cx="113" cy="16" r="5" fill="#EE5514" fill-opacity="0.1"/>
<circle cx="169" cy="16" r="5" fill="#EE5514" fill-opacity="0.1"/>
<circle cx="99" cy="16" r="5" fill="#EE5514" fill-opacity="0.1"/>
<circle cx="155" cy="16" r="5" fill="#EE5514" fill-opacity="0.1"/>
<circle cx="127" cy="16" r="5" fill="#EE5514" fill-opacity="0.1"/>
<circle cx="183" cy="16" r="5" fill="#EE5514" fill-opacity="0.1"/>
<circle cx="85" cy="44" r="5" fill="#EE5514" fill-opacity="0.1"/>
<circle cx="141" cy="44" r="5" fill="#EE5514" fill-opacity="0.1"/>
<circle cx="113" cy="44" r="5" fill="#EE5514" fill-opacity="0.1"/>
<circle cx="169" cy="44" r="5" fill="#EE5514" fill-opacity="0.1"/>
<circle cx="99" cy="44" r="5" fill="#EE5514" fill-opacity="0.1"/>
<circle cx="155" cy="44" r="5" fill="#EE5514" fill-opacity="0.1"/>
<circle cx="127" cy="44" r="5" fill="#EE5514" fill-opacity="0.1"/>
<circle cx="183" cy="44" r="5" fill="#EE5514" fill-opacity="0.1"/>
<circle cx="85" cy="72" r="5" fill="#EE5514" fill-opacity="0.1"/>
<circle cx="141" cy="72" r="5" fill="#EE5514" fill-opacity="0.1"/>
<circle cx="113" cy="72" r="5" fill="#EE5514" fill-opacity="0.1"/>
<circle cx="169" cy="72" r="5" fill="#EE5514" fill-opacity="0.1"/>
<circle cx="99" cy="72" r="5" fill="#EE5514" fill-opacity="0.1"/>
<circle cx="155" cy="72" r="5" fill="#EE5514" fill-opacity="0.1"/>
<circle cx="127" cy="72" r="5" fill="#EE5514" fill-opacity="0.1"/>
<circle cx="183" cy="72" r="5" fill="#EE5514" fill-opacity="0.1"/>
<circle cx="85" cy="100" r="5" fill="#EE5514" fill-opacity="0.1"/>
<circle cx="141" cy="100" r="5" fill="#EE5514" fill-opacity="0.1"/>
<circle cx="113" cy="100" r="5" fill="#EE5514" fill-opacity="0.1"/>
<circle cx="169" cy="100" r="5" fill="#EE5514" fill-opacity="0.1"/>
<circle cx="99" cy="100" r="5" fill="#EE5514" fill-opacity="0.1"/>
<circle cx="155" cy="100" r="5" fill="#EE5514" fill-opacity="0.1"/>
<circle cx="127" cy="100" r="5" fill="#EE5514" fill-opacity="0.1"/>
<circle cx="183" cy="100" r="5" fill="#EE5514" fill-opacity="0.1"/>
<g filter="url(#filter0_f_4_70)">
<ellipse cx="268.5" cy="347.5" rx="194.5" ry="44.5" fill="black" fill-opacity="0.3"/>
</g>
<defs>
<filter id="filter0_f_4_70" x="0" y="229" width="537" height="237" filterUnits="userSpaceOnUse" color-interpolation-filters="sRGB">
<feFlood flood-opacity="0" result="BackgroundImageFix"/>
<feBlend mode="normal" in="SourceGraphic" in2="BackgroundImageFix" result="shape"/>
<feGaussianBlur stdDeviation="37" result="effect1_foregroundBlur_4_70"/>
</filter>
</defs>
</svg>
