<svg width="140" height="140" viewBox="0 0 140 140" fill="none" xmlns="http://www.w3.org/2000/svg">
<circle opacity="0.1" cx="70" cy="70" r="70" fill="#5F2EEA"/>
<path d="M103.478 63.9261C102.245 56.4229 98.4674 52.7691 95.668 51.0502L95.2481 50.9855C95.2481 50.9855 89.4492 48.8722 84.6295 59.6898C88.4701 62.9189 89.1318 70.0435 87.6388 75.9291C85.6879 83.6043 76.9164 88.0188 76.9164 88.0188L74.3612 85.3794L66.6982 104.28H88.1539L85.5988 100.704C85.5988 100.704 94.1127 94.9164 97.8594 90.1479C101.605 85.3794 105.521 76.3564 103.478 63.9261Z" fill="#5F2EEA"/>
<path d="M55.1199 82.74C39.2835 62.6479 62.9526 52.0061 62.9526 52.0061L64.9951 55.0715L72.4884 36H51.0314L53.926 39.5758C50.0096 41.1933 44.4769 46.6418 44.4769 46.6418C44.4769 46.6418 33.409 57.8806 35.195 73.9721C36.9835 90.0636 46.7744 91.1697 46.7744 91.1697L66.0157 90.6594C61.1629 90.3188 55.1199 82.74 55.1199 82.74Z" fill="#5F2EEA"/>
<path d="M73.3381 49.6231C67.8908 50.1334 65.3357 58.137 65.3357 58.137C61.4096 70.8335 58.3783 77.5736 56.8657 80.5511L56.6105 81.0822C60.0496 85.9398 63.7767 88.3265 67.8139 89.6608C70.5608 89.8647 74.6163 79.2509 74.6163 79.2509C78.0504 70.2829 79.7547 66.3103 82.7908 58.5631C83.2828 57.3227 85.6781 50.0552 91.0472 49.5779C87.4641 49.4631 77.7391 49.2104 73.3381 49.6231Z" fill="#5F2EEA"/>
</svg>
