<svg width="140" height="140" viewBox="0 0 140 140" fill="none" xmlns="http://www.w3.org/2000/svg">
<circle opacity="0.1" cx="70" cy="70" r="70" fill="#1265E1"/>
<path d="M101.998 76.9065C103.727 75.1002 105.688 73.0633 105.688 70.3603C105.688 67.6573 103.727 65.6205 101.998 63.8142C101.005 62.9388 100.188 61.8823 99.5897 60.7012C99.3601 59.3328 99.3905 57.9334 99.6794 56.5762C99.9996 54.1423 100.371 51.388 98.8467 49.2871C97.3094 47.1605 94.5552 46.6609 92.134 46.2254C90.7693 46.0888 89.4432 45.6932 88.2268 45.0596C87.2634 44.1157 86.4932 42.9931 85.9594 41.7545C84.7808 39.5639 83.4485 37.0787 80.9248 36.2588C78.4908 35.4646 76.0056 36.6559 73.815 37.7064C72.5925 38.4185 71.2441 38.8882 69.8438 39.0899C68.4434 38.8882 67.095 38.4185 65.8725 37.7064C63.6819 36.6559 61.1967 35.4646 58.7627 36.2588C56.239 37.0787 54.9067 39.5639 53.7282 41.7545C53.1943 42.9931 52.4241 44.1157 51.4607 45.0596C50.2482 45.6915 48.9266 46.0871 47.5663 46.2254C45.1323 46.6609 42.3781 47.1605 40.8408 49.2871C39.3164 51.388 39.6879 54.1423 40.0081 56.5762C40.297 57.9334 40.3274 59.3328 40.0978 60.7012C39.4998 61.8823 38.6825 62.9388 37.6894 63.8142C35.96 65.6205 34 67.6573 34 70.3603C34 73.0633 35.96 75.1002 37.6894 76.9065C38.6825 77.7819 39.4998 78.8384 40.0978 80.0194C40.3274 81.3879 40.297 82.7873 40.0081 84.1444C39.6879 86.5784 39.3164 89.3327 40.8408 91.4336C42.3781 93.5601 45.1323 94.0597 47.5535 94.4953C48.9182 94.6319 50.2443 95.0275 51.4607 95.6611C52.42 96.6084 53.1896 97.7302 53.7282 98.9662C54.9067 101.157 56.239 103.642 58.7627 104.462C61.1967 105.256 63.6819 104.065 65.8725 103.014C67.095 102.302 68.4434 101.832 69.8438 101.631C71.2441 101.832 72.5925 102.302 73.815 103.014C75.4894 103.97 77.3513 104.552 79.2723 104.718C79.8332 104.721 80.391 104.634 80.9248 104.462C83.4485 103.642 84.7808 101.157 85.9594 98.9662C86.4932 97.7276 87.2634 96.6049 88.2268 95.6611C89.4393 95.0292 90.7609 94.6336 92.1212 94.4953C94.5552 94.0597 97.3094 93.5601 98.8467 91.4336C100.371 89.3327 99.9996 86.5784 99.6794 84.1444C99.3905 82.7873 99.3601 81.3879 99.5897 80.0194C100.188 78.8384 101.005 77.7819 101.998 76.9065ZM99.2182 74.2547C97.7937 75.517 96.6726 77.0847 95.9387 78.8409C95.4813 80.7502 95.4595 82.7379 95.8747 84.6568C96.1181 86.4631 96.3615 88.3206 95.7337 89.1789C95.106 90.0372 93.2357 90.3831 91.4422 90.7162C89.502 90.9158 87.6299 91.5413 85.9594 92.5481C84.5025 93.8171 83.3433 95.3917 82.5646 97.1599C81.6935 98.7868 80.7967 100.465 79.7335 100.811C78.7727 101.131 77.0945 100.324 75.4804 99.5426C73.7536 98.5498 71.8289 97.9505 69.8438 97.7876C67.8586 97.9505 65.9339 98.5498 64.2071 99.5426C62.593 100.324 60.9148 101.118 59.9541 100.811C58.8908 100.465 57.994 98.7868 57.1229 97.1599C56.3442 95.3917 55.185 93.8171 53.7282 92.5481C52.0576 91.5413 50.1855 90.9158 48.2453 90.7162C46.4518 90.3831 44.5815 90.0501 43.9538 89.1789C43.326 88.3078 43.5694 86.4631 43.8128 84.6568C44.228 82.7379 44.2062 80.7502 43.7488 78.8409C43.0149 77.0847 41.8938 75.517 40.4693 74.2547C39.1754 72.9096 37.8431 71.5133 37.8431 70.3603C37.8431 69.2074 39.1754 67.811 40.4693 66.4659C41.8938 65.2037 43.0149 63.6359 43.7488 61.8798C44.2062 59.9705 44.228 57.9827 43.8128 56.0638C43.5694 54.2575 43.326 52.4 43.9538 51.5417C44.5815 50.6834 46.4518 50.3375 48.2453 50.0045C50.1855 49.8049 52.0576 49.1793 53.7282 48.1726C55.185 46.9036 56.3442 45.3289 57.1229 43.5608C57.994 41.9339 58.8908 40.2557 59.9541 39.9098C60.9148 39.5895 62.593 40.3966 64.2071 41.178C65.9339 42.1708 67.8586 42.7701 69.8438 42.9331C71.8289 42.7701 73.7536 42.1708 75.4804 41.178C77.0945 40.3966 78.7727 39.6023 79.7335 39.9098C80.7967 40.2557 81.6935 41.9339 82.5646 43.5608C83.3433 45.3289 84.5025 46.9036 85.9594 48.1726C87.6299 49.1793 89.502 49.8049 91.4422 50.0045C93.2357 50.3375 95.106 50.6706 95.7337 51.5417C96.3615 52.4128 96.1181 54.2575 95.8747 56.0638C95.4595 57.9827 95.4813 59.9705 95.9387 61.8798C96.6726 63.6359 97.7937 65.2037 99.2182 66.4659C100.512 67.811 101.844 69.2074 101.844 70.3603C101.844 71.5133 100.512 72.9096 99.2182 74.2547ZM69.8438 45.1237C64.8524 45.1237 59.9732 46.6038 55.823 49.3768C51.6729 52.1499 48.4382 56.0913 46.5281 60.7027C44.618 65.3141 44.1182 70.3883 45.092 75.2838C46.0658 80.1792 48.4693 84.6759 51.9987 88.2054C55.5281 91.7348 60.0249 94.1383 64.9203 95.1121C69.8158 96.0858 74.89 95.5861 79.5014 93.676C84.1128 91.7659 88.0542 88.5312 90.8273 84.3811C93.6003 80.2309 95.0804 75.3517 95.0804 70.3603C95.0716 63.6699 92.4099 57.2559 87.679 52.5251C82.9482 47.7942 76.5342 45.1325 69.8438 45.1237ZM81.1426 68.2978L76.3899 72.8328L77.4147 79.3277C77.4529 79.5632 77.4241 79.8047 77.3316 80.0247C77.2392 80.2446 77.0868 80.4342 76.8918 80.5717C76.6968 80.7093 76.4672 80.7893 76.2289 80.8026C75.9907 80.816 75.7535 80.7621 75.5444 80.6472L69.7541 77.5214L63.8997 80.5062C63.6869 80.6154 63.4478 80.6628 63.2094 80.6431C62.971 80.6233 62.743 80.5373 62.551 80.3946C62.359 80.252 62.2108 80.0584 62.1232 79.8359C62.0355 79.6134 62.0119 79.3708 62.055 79.1355L63.2463 72.6662L58.5961 68.016C58.4302 67.8463 58.3146 67.6338 58.2624 67.4022C58.2102 67.1706 58.2233 66.9291 58.3004 66.7045C58.3774 66.48 58.5154 66.2813 58.6988 66.1306C58.8822 65.9799 59.1039 65.8831 59.3391 65.851L65.8597 64.9799L68.8317 59.1255C68.939 58.9101 69.1048 58.7292 69.3101 58.6037C69.5155 58.4781 69.752 58.4129 69.9927 58.4156C70.2334 58.4183 70.4684 58.4887 70.6709 58.6188C70.8734 58.7489 71.0351 58.9334 71.1376 59.1512L73.9687 65.0824L80.4636 66.1073C80.6988 66.1456 80.9186 66.2487 81.0984 66.4051C81.2781 66.5614 81.4107 66.7648 81.4812 66.9924C81.5518 67.2199 81.5574 67.4627 81.4976 67.6933C81.4378 67.9239 81.3149 68.1333 81.1426 68.2978Z" fill="#1265E1"/>
</svg>
