<svg width="140" height="140" viewBox="0 0 140 140" fill="none" xmlns="http://www.w3.org/2000/svg">
<circle opacity="0.1" cx="70" cy="70" r="70" fill="#AA21EA"/>
<path fill-rule="evenodd" clip-rule="evenodd" d="M69.9189 32C90.8892 32 107.838 48.9486 107.838 69.9189C107.838 90.8892 90.8892 107.838 69.9189 107.838C48.9486 107.838 32 90.8892 32 69.9189C32 48.9486 48.9486 32 69.9189 32ZM62.7373 62.45C65.0354 59.8647 68.7699 59.0029 72.5043 59.8647C77.9623 61.301 81.1222 67.0463 79.6859 72.217L84.5694 75.0897L81.6968 79.9732L77.1005 77.1005C74.5152 79.6859 70.7807 80.835 67.0463 79.6859C61.5882 78.2496 58.4283 72.7916 59.8647 67.3335L42.9161 57.5665L45.7887 52.683L62.7373 62.45ZM65.3227 68.4826C64.7482 71.068 66.1845 73.6534 68.4826 74.2279C71.068 75.0897 73.6534 73.6534 74.2279 71.068C75.0897 68.4826 73.6534 65.8972 71.068 65.3227C68.4826 64.7482 65.8972 66.1845 65.3227 68.4826ZM69.9189 40.6179C86.0057 40.6179 99.2199 53.5448 99.2199 69.9189C99.2199 86.0057 86.0057 99.2199 69.9189 99.2199V94.0491C83.1331 94.0491 94.0491 83.1331 94.0491 69.9189C94.0491 56.4175 83.1331 45.7887 69.9189 45.7887V40.6179Z" fill="#AA21EA"/>
</svg>
